PathFileType	4	(x/y/z)	S01_P20_T17
DataRate	CameraRate	NumFrames	NumMarkers	Units	OrigDataRate	OrigDataStartFrame	OrigNumFrames
240	240	10	51	mm	240	105	418
Frame#	Time	Sternum			R.Acromium			L.Acromium			Top.Head			R.ASIS			L.ASIS			R.PSIS			L.PSIS			R.Great.Tro			L.Great.Tro			R.Iliac.Crest			L.Iliac.Crest			V.Sacral			R.Thigh.Upper.Post			R.Thigh.Lower.Ant			R.Thigh.Lower.Post			R.Thigh.Upper.Ant			R.Knee.Lat			R.Knee.Med			R.Shank.Upper.Post			R.Shank.Lower.Ant			R.Shank.Lower.Post			R.Shank.Upper.Ant			R.Ankle.Lat			R.Ankle.Med			R.Heel.Upper			R.Heel.Med			R.Heel.Lat			R.Toe.Lat			R.Toe.Med			R.Toe.Tip			L.Thigh.Upper.Post			L.Thigh.Lower.Ant			L.Thigh.Lower.Post			L.Thigh.Upper.Ant			L.Knee.Lat			L.Knee.Med			L.Shank.Upper.Post			L.Shank.Lower.Ant			L.Shank.Lower.Post			L.Shank.Upper.Ant			L.Ankle.Lat			L.Ankle.Med			L.Heel.Upper			L.Heel.Med			L.Heel.Lat			L.Toe.Lat			L.Toe.Med			L.Toe.Tip			Cervical.Spine			Back			
		X1	Y1	Z1	X2	Y2	Z2	X3	Y3	Z3	X4	Y4	Z4	X5	Y5	Z5	X6	Y6	Z6	X7	Y7	Z7	X8	Y8	Z8	X9	Y9	Z9	X10	Y10	Z10	X11	Y11	Z11	X12	Y12	Z12	X13	Y13	Z13	X14	Y14	Z14	X15	Y15	Z15	X16	Y16	Z16	X17	Y17	Z17	X18	Y18	Z18	X19	Y19	Z19	X20	Y20	Z20	X21	Y21	Z21	X22	Y22	Z22	X23	Y23	Z23	X24	Y24	Z24	X25	Y25	Z25	X26	Y26	Z26	X27	Y27	Z27	X28	Y28	Z28	X29	Y29	Z29	X30	Y30	Z30	X31	Y31	Z31	X32	Y32	Z32	X33	Y33	Z33	X34	Y34	Z34	X35	Y35	Z35	X36	Y36	Z36	X37	Y37	Z37	X38	Y38	Z38	X39	Y39	Z39	X40	Y40	Z40	X41	Y41	Z41	X42	Y42	Z42	X43	Y43	Z43	X44	Y44	Z44	X45	Y45	Z45	X46	Y46	Z46	X47	Y47	Z47	X48	Y48	Z48	X49	Y49	Z49	X50	Y50	Z50	X51	Y51	Z51	

105	0.43333	-679.19	1259.1	275.11	-778.48	1522.1	446.9	-792.24	1534.1	117.26	-790.48	1843.9	278.15	-740.9	1024.7	432.93	-741.13	1005.3	166.24	-974.6	1075	342.32	-978.66	1074.5	239.77	-812.08	984.84	520.13	-859.28	964.43	91.264	-825.36	1128.6	495.94	-843.87	1093.2	89.573	-993.25	1039.8	290.21	-719.55	685.14	502.77	-627.88	645.71	474.65	-684.53	605.99	476.81	-660.91	727.91	496.48	-639.07	558.36	470.13	-632.74	561.39	324.35	-663.98	392.96	486.25	-588.05	323.25	445.26	-655.45	323.45	473.25	-600.83	393.51	464.18	-613.93	120.98	432.81	-578.77	138.87	343.45	-668.12	72.594	368.61	-641.84	50.633	339.83	-651.94	44.091	403.6	-472.3	82.09	475.15	-435.05	105.68	357.72	-386.08	141.61	417.94	-960.71	708.58	121.27	-895.83	619.01	112.79	-972.58	618.9	135.18	-891.91	713.66	98.784	-949.77	521.93	122.28	-914.64	514.39	262.14	-1042.7	402.25	108.64	-1006.5	298.4	126.91	-1061.6	325.24	111.44	-985.23	372.5	119.21	-1135.8	120.45	150.85	-1101.5	126.2	245.85	-1206.9	92.037	200.15	-1196.9	64.801	231.55	-1202.3	66.979	169.52	-997.52	38.927	119.98	-965.1	43.178	241.26	-905.64	52.516	187.33	-872.32	1590.4	284.23	-986.15	1279.6	299.7
106	0.4375	-673.4	1257.5	275.49	-772.6	1520.6	447.59	-786.49	1532.6	117.94	-784.71	1842.5	278.95	-734.86	1023.3	433.28	-735.51	1003.8	166.47	-968.73	1073.6	342.99	-972.92	1073.2	240.45	-805.93	983.15	520.48	-853.94	963.37	91.581	-819.2	1127	496.46	-838.4	1091.8	89.993	-987.46	1038.5	290.85	-713.64	683.49	502.85	-622.09	644.27	474.09	-678.6	604.45	476.63	-655.11	726.37	496.25	-632.64	557.34	469.69	-627.55	559.92	323.73	-655.62	391.68	486.59	-579.1	322.67	445.46	-646.37	322.2	473.82	-592.6	392.88	464.15	-602.5	119.89	433.87	-568.04	137.84	344.23	-656.55	70.588	370.11	-630.09	48.792	341.31	-639.77	42.425	405.19	-460.08	82.998	475.64	-423.79	106.59	357.88	-374.89	143.42	417.69	-956.09	707.92	121.52	-891.52	618.15	112.85	-968.24	618.25	135.36	-887.31	712.8	98.962	-945.91	521.25	122.29	-910.44	513.45	262.15	-1039.7	402.36	108.65	-1004.5	298.2	126.85	-1059.2	325.55	111.42	-982.48	372.11	119.14	-1135.2	121.21	150.85	-1100.9	126.87	245.82	-1206.7	93.335	200.17	-1196.6	65.976	231.58	-1202.1	68.094	169.55	-997.5	38.875	119.99	-965.04	43.148	241.25	-905.56	52.358	187.33	-866.65	1589	285	-980.43	1278.1	300.44
107	0.44167	-667.6	1256	275.9	-766.71	1519	448.31	-780.79	1531.1	118.66	-778.94	1841.2	279.78	-728.78	1021.8	433.62	-729.86	1002.5	166.7	-962.83	1072.2	343.67	-967.14	1071.9	241.14	-799.75	981.43	520.83	-848.57	962.32	91.91	-813	1125.3	496.99	-832.89	1090.5	90.439	-981.63	1037.2	291.51	-707.58	681.91	502.95	-616.16	642.89	473.53	-672.52	602.97	476.49	-649.16	724.89	496	-626.13	556.31	469.3	-622.26	558.48	323.19	-647.45	390.43	486.91	-570.46	322.02	445.63	-637.58	320.97	474.37	-584.56	392.2	464.13	-591.69	118.86	434.86	-557.91	136.8	344.94	-645.67	68.778	371.53	-619.08	47.099	342.69	-628.35	40.928	406.68	-448.61	83.702	476.07	-413.22	107.24	357.96	-364.35	144.85	417.39	-951.33	707.2	121.77	-887.04	617.26	112.9	-963.72	617.55	135.54	-882.57	711.92	99.126	-941.83	520.53	122.27	-906.01	512.47	262.13	-1036.5	402.47	108.64	-1002.2	297.99	126.76	-1056.8	325.87	111.37	-979.57	371.7	119.06	-1134.6	122.06	150.82	-1100.2	127.6	245.75	-1206.5	94.768	200.17	-1196.4	67.283	231.59	-1201.9	69.326	169.56	-997.49	38.82	119.99	-964.98	43.112	241.24	-905.48	52.196	187.33	-860.99	1587.7	285.8	-974.7	1276.5	301.2
108	0.44583	-661.79	1254.4	276.35	-760.82	1517.5	449.06	-775.12	1529.6	119.41	-773.16	1839.8	280.63	-722.66	1020.3	433.96	-724.16	1001.1	166.93	-956.89	1070.7	344.38	-961.33	1070.6	241.86	-793.52	979.7	521.18	-843.15	961.29	92.253	-806.77	1123.7	497.54	-827.35	1089.2	90.913	-975.76	1035.8	292.19	-701.36	680.39	503.06	-610.09	641.58	472.96	-666.3	601.55	476.39	-643.07	723.48	495.74	-619.56	555.28	468.94	-616.86	557.06	322.72	-639.46	389.21	487.23	-562.11	321.31	445.78	-629.08	319.77	474.88	-576.71	391.44	464.1	-581.52	117.87	435.77	-548.36	135.73	345.58	-635.5	67.159	372.84	-608.82	45.544	343.98	-617.71	39.59	408.06	-437.89	84.169	476.42	-403.34	107.61	357.99	-354.45	145.86	417.04	-946.41	706.44	122.01	-882.36	616.35	112.92	-959	616.79	135.69	-877.68	711.02	99.275	-937.52	519.76	122.21	-901.34	511.43	262.06	-1033.2	402.59	108.58	-999.85	297.79	126.66	-1054.1	326.22	111.29	-976.47	371.27	118.95	-1133.9	122.98	150.75	-1099.4	128.42	245.66	-1206.3	96.344	200.13	-1196.1	68.734	231.58	-1201.6	70.684	169.55	-997.46	38.761	120	-964.93	43.072	241.23	-905.39	52.029	187.32	-855.35	1586.3	286.64	-968.96	1275	302.01
109	0.45	-655.97	1253	276.82	-754.93	1515.9	449.85	-769.5	1528.2	120.2	-767.39	1838.5	281.51	-716.5	1018.8	434.29	-718.43	999.82	167.16	-950.93	1069.2	345.1	-955.49	1069.2	242.59	-787.24	977.97	521.52	-837.68	960.28	92.609	-800.52	1122	498.12	-821.78	1087.9	91.411	-969.85	1034.4	292.88	-695	678.95	503.17	-603.88	640.33	472.39	-659.92	600.2	476.32	-636.84	722.15	495.45	-612.92	554.23	468.63	-611.35	555.67	322.34	-631.67	388.02	487.52	-554.06	320.51	445.9	-620.88	318.59	475.35	-569.05	390.61	464.07	-572	116.91	436.6	-539.42	134.63	346.15	-626.04	65.725	374.04	-599.33	44.12	345.16	-607.87	38.401	409.33	-427.93	84.373	476.7	-394.15	107.67	357.96	-345.19	146.44	416.66	-941.33	705.62	122.24	-877.5	615.41	112.92	-954.08	615.97	135.83	-872.63	710.09	99.409	-932.98	518.95	122.13	-896.43	510.34	261.95	-1029.6	402.71	108.49	-997.32	297.6	126.52	-1051.3	326.59	111.18	-973.2	370.82	118.82	-1133.1	124	150.66	-1098.6	129.32	245.54	-1206	98.07	200.06	-1195.7	70.337	231.54	-1201.3	72.18	169.52	-997.44	38.701	120	-964.89	43.027	241.22	-905.3	51.855	187.32	-849.71	1584.9	287.52	-963.2	1273.4	302.84
110	0.45417	-650.15	1251.5	277.32	-749.04	1514.4	450.67	-763.92	1526.7	121.02	-761.61	1837.1	282.42	-710.3	1017.4	434.61	-712.65	998.58	167.4	-944.94	1067.7	345.83	-949.62	1067.8	243.34	-780.91	976.25	521.87	-832.15	959.27	92.98	-794.25	1120.3	498.71	-816.19	1086.7	91.933	-963.89	1032.9	293.58	-688.5	677.59	503.27	-597.54	639.14	471.81	-653.41	598.9	476.28	-630.45	720.88	495.14	-606.22	553.17	468.36	-605.73	554.3	322.04	-624.07	386.83	487.8	-546.32	319.63	445.99	-612.98	317.42	475.78	-561.58	389.71	464.03	-563.13	115.97	437.34	-531.06	133.48	346.64	-617.29	64.472	375.12	-590.62	42.823	346.23	-598.83	37.355	410.48	-418.74	84.291	476.91	-385.64	107.41	357.87	-336.57	146.56	416.25	-936.08	704.74	122.46	-872.43	614.45	112.88	-948.96	615.1	135.95	-867.42	709.15	99.526	-928.21	518.1	122.01	-891.27	509.2	261.79	-1025.8	402.84	108.36	-994.63	297.41	126.36	-1048.3	326.98	111.04	-969.74	370.36	118.65	-1132.3	125.11	150.54	-1097.6	130.31	245.39	-1205.6	99.952	199.97	-1195.3	72.106	231.48	-1200.9	73.824	169.47	-997.41	38.641	120	-964.85	42.976	241.2	-905.21	51.675	187.31	-844.09	1583.5	288.45	-957.44	1271.8	303.71
111	0.45833	-644.32	1250.2	277.86	-743.16	1512.9	451.53	-758.38	1525.3	121.88	-755.84	1835.8	283.35	-704.06	1015.9	434.91	-706.82	997.39	167.64	-938.92	1066.1	346.59	-943.72	1066.4	244.1	-774.53	974.54	522.22	-826.56	958.29	93.365	-787.96	1118.6	499.33	-810.57	1085.5	92.479	-957.88	1031.4	294.31	-681.86	676.32	503.36	-591.06	638.02	471.23	-646.77	597.68	476.27	-623.92	719.69	494.81	-599.47	552.1	468.13	-599.99	552.97	321.83	-616.66	385.66	488.06	-538.87	318.66	446.05	-605.38	316.26	476.16	-554.31	388.72	463.99	-554.91	115.04	437.99	-523.3	132.29	347.06	-609.26	63.398	376.08	-582.67	41.649	347.17	-590.59	36.448	411.5	-410.32	83.906	477.05	-377.81	106.8	357.74	-328.58	146.2	415.82	-930.65	703.82	122.68	-867.15	613.47	112.82	-943.63	614.16	136.05	-862.04	708.18	99.628	-923.19	517.2	121.86	-885.85	508.01	261.58	-1021.7	402.98	108.19	-991.77	297.24	126.16	-1045.1	327.41	110.87	-966.08	369.89	118.45	-1131.3	126.32	150.38	-1096.6	131.39	245.21	-1205.2	102	199.85	-1194.9	74.049	231.4	-1200.4	75.629	169.4	-997.37	38.582	120	-964.82	42.922	241.19	-905.11	51.486	187.31	-838.48	1582.2	289.41	-951.67	1270.3	304.61
112	0.4625	-638.47	1248.8	278.44	-737.28	1511.4	452.43	-752.88	1523.9	122.77	-750.06	1834.5	284.31	-697.77	1014.5	435.21	-700.95	996.26	167.89	-932.87	1064.6	347.35	-937.79	1065	244.88	-768.1	972.86	522.56	-820.91	957.31	93.765	-781.66	1116.9	499.98	-804.92	1084.4	93.046	-951.83	1029.9	295.04	-675.08	675.13	503.43	-584.45	636.96	470.65	-640.01	596.53	476.27	-617.25	718.58	494.46	-592.66	551.02	467.94	-594.13	551.68	321.69	-609.45	384.51	488.3	-531.71	317.59	446.08	-598.07	315.1	476.5	-547.22	387.66	463.93	-547.33	114.12	438.56	-516.11	131.05	347.4	-601.94	62.502	376.91	-575.49	40.597	348	-583.15	35.675	412.39	-402.67	83.207	477.12	-370.64	105.85	357.58	-321.19	145.35	415.38	-925.06	702.84	122.89	-861.66	612.46	112.72	-938.08	613.17	136.12	-856.49	707.19	99.712	-917.92	516.26	121.66	-880.18	506.77	261.32	-1017.5	403.13	107.98	-988.74	297.08	125.93	-1041.8	327.86	110.66	-962.23	369.41	118.22	-1130.2	127.64	150.19	-1095.4	132.57	245.01	-1204.6	104.21	199.69	-1194.3	76.18	231.3	-1199.9	77.606	169.32	-997.32	38.526	119.99	-964.8	42.863	241.18	-905.01	51.286	187.3	-832.89	1580.9	290.42	-945.89	1268.7	305.54
113	0.46667	-632.62	1247.6	279.05	-731.4	1509.9	453.36	-747.42	1522.6	123.7	-744.28	1833.3	285.3	-691.44	1013.1	435.51	-695.04	995.18	168.14	-926.79	1063	348.14	-931.82	1063.6	245.67	-761.61	971.22	522.91	-815.2	956.34	94.18	-775.36	1115.2	500.64	-799.25	1083.2	93.635	-945.73	1028.4	295.8	-668.2	674.03	503.48	-577.72	635.95	470.1	-633.14	595.44	476.29	-610.45	717.53	494.09	-585.81	549.93	467.79	-588.15	550.42	321.63	-602.42	383.36	488.5	-524.83	316.44	446.08	-591.04	313.95	476.79	-540.31	386.52	463.85	-540.38	113.2	439.05	-509.48	129.75	347.67	-595.32	61.783	377.62	-569.07	39.667	348.72	-576.5	35.035	413.16	-395.76	82.191	477.12	-364.11	104.56	357.37	-314.39	144.02	414.93	-919.28	701.81	123.1	-855.95	611.43	112.59	-932.32	612.11	136.18	-850.77	706.18	99.779	-912.4	515.29	121.42	-874.24	505.47	261	-1013	403.31	107.73	-985.52	296.94	125.67	-1038.2	328.35	110.43	-958.18	368.93	117.96	-1129.1	129.07	149.98	-1094.2	133.84	244.77	-1203.9	106.61	199.52	-1193.7	78.509	231.18	-1199.3	79.768	169.22	-997.27	38.477	119.98	-964.79	42.802	241.16	-904.9	51.073	187.29	-827.31	1579.5	291.47	-940.1	1267.1	306.51
114	0.47083	-626.76	1246.4	279.69	-725.53	1508.5	454.33	-741.99	1521.2	124.66	-738.51	1832.1	286.32	-685.07	1011.8	435.8	-689.07	994.17	168.4	-920.68	1061.4	348.93	-925.81	1062.1	246.48	-755.06	969.62	523.26	-809.42	955.38	94.61	-769.06	1113.6	501.34	-793.55	1082.2	94.245	-939.58	1026.8	296.56	-661.2	673	503.5	-570.89	635	469.56	-626.17	594.42	476.32	-603.54	716.56	493.71	-578.92	548.84	467.67	-582.05	549.21	321.64	-595.57	382.24	488.68	-518.23	315.22	446.04	-584.3	312.81	477.04	-533.57	385.32	463.77	-534.04	112.29	439.45	-503.4	128.42	347.87	-589.37	61.239	378.2	-563.37	38.861	349.32	-570.62	34.526	413.81	-389.58	80.864	477.07	-358.21	102.92	357.15	-308.17	142.2	414.49	-913.32	700.73	123.3	-850.02	610.39	112.42	-926.33	611	136.21	-844.88	705.16	99.827	-906.62	514.27	121.14	-868.02	504.11	260.63	-1008.3	403.5	107.44	-982.12	296.83	125.36	-1034.5	328.89	110.17	-953.92	368.43	117.66	-1127.7	130.63	149.73	-1092.8	135.22	244.5	-1203	109.19	199.31	-1192.9	81.049	231.05	-1198.6	82.128	169.11	-997.2	38.437	119.96	-964.78	42.74	241.15	-904.8	50.845	187.28	-821.74	1578.2	292.56	-934.31	1265.6	307.51
